<?xml version="1.0" encoding="UTF-8" standalone="no"?>
<!-- Created with Inkscape (http://www.inkscape.org/) -->

<svg
   width="501.19409mm"
   height="546.82428mm"
   viewBox="0 0 501.19409 546.82428"
   version="1.1"
   id="svg1"
   xml:space="preserve"
   xmlns:inkscape="http://www.inkscape.org/namespaces/inkscape"
   xmlns:sodipodi="http://sodipodi.sourceforge.net/DTD/sodipodi-0.dtd"
   xmlns="http://www.w3.org/2000/svg"
   xmlns:svg="http://www.w3.org/2000/svg"><sodipodi:namedview
     id="namedview1"
     pagecolor="#ffffff"
     bordercolor="#000000"
     borderopacity="0.25"
     inkscape:showpageshadow="2"
     inkscape:pageopacity="0.0"
     inkscape:pagecheckerboard="0"
     inkscape:deskcolor="#d1d1d1"
     inkscape:document-units="mm"
     inkscape:zoom="0.18106587"
     inkscape:cx="-1996.511"
     inkscape:cy="2134.5823"
     inkscape:window-width="1920"
     inkscape:window-height="1094"
     inkscape:window-x="-11"
     inkscape:window-y="-11"
     inkscape:window-maximized="1"
     inkscape:current-layer="layer1"><inkscape:page
       x="0"
       y="0"
       width="501.19409"
       height="546.82428"
       id="page2"
       margin="0"
       bleed="0" /></sodipodi:namedview><defs
     id="defs1" /><g
     inkscape:label="Calque 1"
     inkscape:groupmode="layer"
     id="layer1"
     transform="translate(575.19897,-212.14233)"><path
       id="text2"
       style="font-style:normal;font-variant:normal;font-weight:normal;font-stretch:normal;font-size:426.947px;font-family:'Century Gothic';-inkscape-font-specification:'Century Gothic';writing-mode:lr-tb;direction:ltr;fill:#d4aa00;stroke-width:73.1673"
       d="m -317.01539,212.14755 c -25.17801,-0.16056 -50.73552,3.37763 -76.67206,10.61446 -32.58696,9.09245 -61.38327,22.77825 -86.38959,41.05607 -17.79349,12.91645 -31.84449,26.94807 -42.15387,42.09753 l -0.56961,-1.46549 c -50.80327,67.08967 -48.70535,111.95945 -31.14437,141.64562 24.9517,37.81323 60.47695,52.36701 101.68666,63.29365 20.39905,5.35009 46.56445,11.65371 74.0799,18.13799 70.23336,16.5512 148.94916,35.08604 163.64319,40.33284 19.30459,6.89311 68.52897,55.74738 -27.48132,88.5541 -24.09136,8.23203 -57.51588,6.70802 -98.33094,-2.75325 -108.40638,-25.12947 -138.44058,-124.3829 -138.44058,-124.3829 l -96.41104,54.19874 c 16.27806,47.06257 50.87668,102.58429 126.51232,139.67068 4.27386,2.09559 136.80513,66.22371 252.63849,17.7296 52.30037,-21.89577 105.332865,-58.04406 118.771264,-116.45205 5.289301,-22.98924 3.790615,-45.98154 -1.807037,-66.0433 -7.058959,-25.29903 -25.890997,-47.18915 -56.495287,-65.67291 -30.60427,-18.48376 -82.14452,-34.93498 -154.62262,-49.35062 -18.11249,-3.61184 -34.04249,-6.85043 -47.78992,-9.71579 -74.1226,-15.44929 -134.90507,-28.56661 -100.10423,-77.57569 18.62877,-26.23437 61.05091,-50.68691 107.72652,-46.81212 68.82233,5.71331 101.05279,29.52204 121.91847,59.57822 20.86565,30.05619 24.38198,45.45361 24.38198,45.45361 l 101.87982,-54.16473 c 0,0 -6.284547,-15.9162 -19.80779,-36.50276 -9.72413,-14.80313 -23.24735,-31.95736 -40.75552,-47.47275 -54.7608,-48.52796 -141.83894,-61.90561 -149.21139,-62.60558 -8.30842,-0.8754 -16.65884,-1.33969 -25.05152,-1.39323 z"
       sodipodi:nodetypes="sscccssssssccssssscssssccsscss"
       inkscape:export-filename="setka logo 2.svg"
       inkscape:export-xdpi="96"
       inkscape:export-ydpi="96" /></g></svg>
